<svg width="263" height="43" viewBox="0 0 263 43" fill="none" xmlns="http://www.w3.org/2000/svg">
<g clip-path="url(#clip0_11_2172)">
<path d="M84.3984 11.0118H91.6947V7.79627C91.6947 2.83596 94.3191 0.5 99.5822 0.5H105.263V5.05657H99.9283C97.8951 5.05657 97.3039 5.7487 97.3039 7.79627V11.0118H105.263V15.6837H97.3039V41.3793H91.6947V15.6837H84.3984V11.0118Z" fill="white"/>
<path d="M132.918 32.9004C131.577 37.9905 126.79 42.3164 119.205 42.3164C109.861 42.3164 104.021 35.3085 104.021 26.2674C104.021 17.2264 109.789 10.2041 118.902 10.2041C126.213 10.2041 130.582 14.2992 132.514 20.3699C133.214 22.7571 133.55 25.2364 133.509 27.7238V28.315H109.587C109.818 33.2753 113.322 37.9472 119.162 37.9472C124.065 37.9472 126.458 35.0633 126.862 32.9725L132.918 32.9004ZM109.587 23.8594H127.9C127.669 18.5963 124.742 14.5155 118.902 14.5155C113.063 14.5155 109.861 18.8991 109.587 23.8594Z" fill="white"/>
<path d="M136.48 0.5H142.09V41.3793H136.48V0.5Z" fill="white"/>
<path d="M147.078 0.5H152.687V41.3793H147.078V0.5Z" fill="white"/>
<path d="M171.289 10.1318C180.632 10.1318 186.761 17.1397 186.761 26.1952C186.761 35.2506 180.632 42.3162 171.289 42.3162C161.945 42.3162 155.816 35.3083 155.816 26.2673C155.816 17.2262 161.945 10.1318 171.289 10.1318ZM171.289 14.8038C164.857 14.8038 161.411 20.0669 161.411 26.1952C161.411 32.3235 164.857 37.5722 171.289 37.5722C177.72 37.5722 181.151 32.3235 181.151 26.1952C181.151 20.0669 177.705 14.8038 171.289 14.8038Z" fill="white"/>
<path d="M207.54 17.4284C206.847 20.644 205.852 24.7391 204.742 28.1133L200.416 41.3792H195.283L186.285 11.0117H191.952L195.456 24.0902C196.438 27.6665 197.237 31.2905 197.85 34.9481H198.08C198.672 32.0642 199.724 27.9402 200.892 24.1479L204.973 11.0117H210.351L214.432 24.1479C215.6 27.9402 216.653 32.0354 217.244 34.9481H217.475C218.088 31.2905 218.887 27.6665 219.868 24.0902L223.372 11.0117H229.039L219.984 41.3792H214.85L210.524 28.1133C209.414 24.7391 208.419 20.644 207.727 17.4284H207.54Z" fill="white"/>
<path d="M239.84 28.5311C233.596 27.5939 229.039 24.9118 229.039 19.0719C229.039 13.8665 233.466 10.1318 241.584 10.1318C249.933 10.1318 253.625 14.7461 253.855 18.8989H248.362C248.246 16.2601 245.968 14.4 241.469 14.4C236.624 14.4 234.576 16.2601 234.576 18.5961C234.576 21.5809 236.97 22.5182 240.835 23.095L243.69 23.5708C249.703 24.436 254.49 26.4547 254.49 32.9579C254.49 38.5671 249.76 42.3018 241.642 42.3018C233.293 42.3018 228.664 38.3364 228.506 32.9579H234.173C234.288 36.4042 237.057 37.9903 241.642 37.9903C246.227 37.9903 248.953 36.2312 248.953 33.4338C248.953 30.2182 246.314 29.5261 242.637 28.9926L239.84 28.5311Z" fill="white"/>
<path d="M5.60919 15.0926C6.7128 13.4988 8.20028 12.2088 9.93422 11.3419C11.6681 10.4749 13.5926 10.0589 15.5298 10.1323C22.5377 10.1323 26.6328 14.2274 26.6328 21.8121V41.3794H21.0237V22.4033C21.0237 17.4286 18.9761 14.8042 14.0734 14.8042C9.40152 14.8042 5.60919 18.0198 5.60919 24.1481V41.4515H0V11.0119H5.60919V15.0926Z" fill="white"/>
<path d="M44.9018 10.1318C54.2457 10.1318 60.374 17.1397 60.374 26.1952C60.374 35.2506 54.2457 42.3162 44.9018 42.3162C35.558 42.3162 29.4297 35.2362 29.4297 26.1952C29.4297 17.1541 35.558 10.1318 44.9018 10.1318ZM44.9018 14.8038C38.4851 14.8038 35.0389 20.0669 35.0389 26.1952C35.0389 32.3235 38.4851 37.5722 44.9018 37.5722C51.3185 37.5722 54.7936 32.3235 54.7936 26.1952C54.7936 20.0669 51.3185 14.8038 44.9018 14.8038Z" fill="white"/>
<path d="M66.5033 15.6837H59.207V11.0118H66.5033V4.00391H72.0981V11.0118H79.9856V15.6837H72.0981V34.0686C72.0981 36.1162 72.6893 36.8227 74.7224 36.8227H79.9856V41.3793H73.54C68.2913 41.3793 66.4745 38.7405 66.4745 34.0686L66.5033 15.6837Z" fill="white"/>
<path d="M79.9995 23.0518H0V29.3387H79.9995V23.0518Z" fill="#00E100"/>
</g>
<defs>
<clipPath id="clip0_11_2172">
<rect width="263" height="42" fill="white" transform="translate(0 0.5)"/>
</clipPath>
</defs>
</svg>
