<svg width="56" height="56" viewBox="0 0 56 56" fill="none" xmlns="http://www.w3.org/2000/svg">
<path d="M44.3317 51.3327H11.6641V4.66797H41.9993V7.00034H44.3317V51.3327Z" fill="black"/>
<path d="M34.9997 46.668H32.6644H30.332V49.0003H32.6644H34.9997H37.332H39.6644V46.668H37.332H34.9997Z" fill="white"/>
<path d="M20.9997 16.3324V14H18.6644H16.332V16.3324H18.6644H20.9997Z" fill="white"/>
<path d="M44.332 9.33203V6.99966H41.9968V9.33203H39.6644V6.99966H41.9968V4.66729H39.6644V2.33203H9.33203V51.332V53.6673H46.6673V51.332V9.33203H44.332ZM44.332 13.9997V51.332H11.6673V4.66729H37.332V11.6673H44.332V13.9997Z" fill="white"/>
<path d="M20.9997 30.3324H23.332V28H20.9997H18.6644H16.332V30.3324H18.6644H20.9997Z" fill="white"/>
<path d="M20.9997 32.668H18.6644H16.332V35.0003H18.6644H20.9997V32.668Z" fill="white"/>
<path d="M21 37.332V39.6673H23.3324H25.6648V37.332H23.3324H21Z" fill="white"/>
<path d="M30.3317 23.3324V21H27.9993H25.6641V23.3324H27.9993H30.3317Z" fill="white"/>
<path d="M20.9997 23.3324H23.332V21H20.9997H18.6644H16.332V23.3324H18.6644H20.9997Z" fill="white"/>
<path d="M34.9993 21H32.6641V23.3324H34.9993H37.3317H39.6641V21H37.3317H34.9993Z" fill="white"/>
<path d="M34.9997 37.332H32.6644H30.332V39.6673H32.6644H34.9997H37.332H39.6644V37.332H37.332H34.9997Z" fill="white"/>
<path d="M34.9993 32.668H32.6641V35.0003H34.9993H37.3317H39.6641V32.668H37.3317H34.9993Z" fill="white"/>
<path d="M35 28V30.3324H37.3324H39.6648V28H37.3324H35Z" fill="white"/>
<path d="M23.332 32.668V35.0003H25.6644H27.9997V32.668H25.6644H23.332Z" fill="white"/>
<path d="M32.6641 30.3324V28H30.3317H27.9993H25.6641V30.3324H27.9993H30.3317H32.6641Z" fill="white"/>
<path d="M18.6644 37.332H16.332V39.6644H18.6644V37.332Z" fill="white"/>
</svg>
