<svg width="41" height="41" viewBox="0 0 41 41" fill="none" xmlns="http://www.w3.org/2000/svg">
<path d="M32.166 37.1659H8.83203V3.83398H30.5001V5.49996H32.166V37.1659Z" fill="black"/>
<path d="M25.5 33.834H23.832H22.166V35.5H23.832H25.5H27.166H28.832V33.834H27.166H25.5Z" fill="#00E100"/>
<path d="M15.5 12.166V10.5H13.832H12.166V12.166H13.832H15.5Z" fill="#00E100"/>
<path d="M32.166 7.16602V5.50004H30.498V7.16602H28.832V5.50004H30.498V3.83406H28.832V2.16602H7.16602V37.166V38.8341H33.8341V37.166V7.16602H32.166ZM32.166 10.5V37.166H8.83405V3.83406H27.166V8.83406H32.166V10.5Z" fill="#00E100"/>
<path d="M15.5 22.166H17.166V20.5H15.5H13.832H12.166V22.166H13.832H15.5Z" fill="#00E100"/>
<path d="M15.5 23.834H13.832H12.166V25.5H13.832H15.5V23.834Z" fill="#00E100"/>
<path d="M15.5 27.166V28.8341H17.166H18.832V27.166H17.166H15.5Z" fill="#00E100"/>
<path d="M22.166 17.166V15.5H20.5001H18.832V17.166H20.5001H22.166Z" fill="#00E100"/>
<path d="M15.5 17.166H17.166V15.5H15.5H13.832H12.166V17.166H13.832H15.5Z" fill="#00E100"/>
<path d="M25.5001 15.5H23.832V17.166H25.5001H27.166H28.832V15.5H27.166H25.5001Z" fill="#00E100"/>
<path d="M25.5 27.166H23.832H22.166V28.8341H23.832H25.5H27.166H28.832V27.166H27.166H25.5Z" fill="#00E100"/>
<path d="M25.5001 23.834H23.832V25.5H25.5001H27.166H28.832V23.834H27.166H25.5001Z" fill="#00E100"/>
<path d="M25.5 20.5V22.166H27.166H28.832V20.5H27.166H25.5Z" fill="#00E100"/>
<path d="M17.166 23.834V25.5H18.832H20.5V23.834H18.832H17.166Z" fill="#00E100"/>
<path d="M23.832 22.166V20.5H22.166H20.5001H18.832V22.166H20.5001H22.166H23.832Z" fill="#00E100"/>
<path d="M13.832 27.166H12.166V28.832H13.832V27.166Z" fill="#00E100"/>
</svg>
