<svg width="49" height="36" viewBox="0 0 49 36" fill="none" xmlns="http://www.w3.org/2000/svg">
<rect x="2" width="46" height="28" fill="#00E100"/>
<path d="M47 35H48V34V30.8012V27.6024V24.3996V21.2008V18.002V14.7992V11.6004V8.40158V5.19881L48 2V1H47H43.7832H42.7832L42.7832 2V4.19881H40.5703H39.5703V5.19881V7.40158H37.3574H36.3574V8.40158V10.6004H34.1406H33.1406V11.6004V13.7992L30.9277 13.7992H29.9277V14.7992V17.002H27.7149H26.7149V18.002L26.7149 20.2008L24.498 20.2008H22.2851L22.2851 18.002V17.002H21.2851H19.0723V14.7992V13.7992H18.0723H15.8554V11.6004V10.6004H14.8554H12.6426V8.40158V7.40158H11.6426H9.4297V5.19881L9.4297 4.19881H8.4297H6.21287V2V1H5.21287H2H1V2L1 5.19881V8.40158V11.6004V14.7992V18.002V21.2008V24.3996V27.6024V30.8012V34V35H2H5.21287H8.4297H11.6426H14.8554L18.0723 35H21.2851H24.498H27.7149H30.9277H34.1406H37.3574H40.5703H43.7832H47Z" fill="#00E100" stroke="black" stroke-width="2"/>
</svg>
