<svg width="40" height="41" viewBox="0 0 40 41" fill="none" xmlns="http://www.w3.org/2000/svg">
<path d="M35 8.83402H33.334H31.6659V7.16598H30H28.334V5.5H26.6659H25H23.334V7.16598H21.6659V8.83402H20V10.5H18.334V12.166V13.834V15.5H16.6659H15H13.334V13.834H11.6659V12.166H9.99996H8.33398V10.5H6.66594V8.83402H4.99996V10.5H3.33398V12.166H4.99996V13.834V15.5H6.66594V17.166H4.99996V18.834V20.5H6.66594V22.166H8.33398V23.834H9.99996V25.5H8.33398V27.166H9.99996V28.834H11.6659H13.334V30.5H11.6659H9.99996V32.166H8.33398H6.66594H4.99996H3.33398V33.834H4.99996H6.66594H8.33398V35.5H9.99996H11.6659H13.334H15H16.6659H18.334V33.834H20H21.6659V32.166H23.334H25V30.5H26.6659V28.834H28.334V27.166H30V25.5H31.6659V23.834V22.166V20.5H33.334V18.834V17.166V15.5V13.834H35V12.166V10.5H36.6659V8.83402H35Z" fill="#00E100"/>
</svg>
