<svg width="56" height="56" viewBox="0 0 56 56" fill="none" xmlns="http://www.w3.org/2000/svg">
<mask id="path-1-outside-1_11_2176" maskUnits="userSpaceOnUse" x="2.66797" y="5" width="51" height="46" fill="black">
<rect fill="white" x="2.66797" y="5" width="51" height="46"/>
<path d="M49.0003 11.6676H46.668H44.3327V9.33237H42.0003H39.668V7H37.3327H35.0003H32.668V9.33237H30.3327V11.6676H28.0003V14H25.668V16.3324V18.6676V21H23.3327H21.0003H18.668V18.6676H16.3327V16.3324H14.0003H11.668V14H9.33271V11.6676H7.00034V14H4.66797V16.3324H7.00034V18.6676V21H9.33271V23.3324H7.00034V25.6676V28H9.33271V30.3324H11.668V32.6676H14.0003V35H11.668V37.3324H14.0003V39.6676H16.3327H18.668V42H16.3327H14.0003V44.3324H11.668H9.33271H7.00034H4.66797V46.6676H7.00034H9.33271H11.668V49H14.0003H16.3327H18.668H21.0003H23.3327H25.668V46.6676H28.0003H30.3327V44.3324H32.668H35.0003V42H37.3327V39.6676H39.668V37.3324H42.0003V35H44.3327V32.6676V30.3324V28H46.668V25.6676V23.3324V21V18.6676H49.0003V16.3324V14H51.3327V11.6676H49.0003Z"/>
</mask>
<path d="M49.0003 11.6676H46.668H44.3327V9.33237H42.0003H39.668V7H37.3327H35.0003H32.668V9.33237H30.3327V11.6676H28.0003V14H25.668V16.3324V18.6676V21H23.3327H21.0003H18.668V18.6676H16.3327V16.3324H14.0003H11.668V14H9.33271V11.6676H7.00034V14H4.66797V16.3324H7.00034V18.6676V21H9.33271V23.3324H7.00034V25.6676V28H9.33271V30.3324H11.668V32.6676H14.0003V35H11.668V37.3324H14.0003V39.6676H16.3327H18.668V42H16.3327H14.0003V44.3324H11.668H9.33271H7.00034H4.66797V46.6676H7.00034H9.33271H11.668V49H14.0003H16.3327H18.668H21.0003H23.3327H25.668V46.6676H28.0003H30.3327V44.3324H32.668H35.0003V42H37.3327V39.6676H39.668V37.3324H42.0003V35H44.3327V32.6676V30.3324V28H46.668V25.6676V23.3324V21V18.6676H49.0003V16.3324V14H51.3327V11.6676H49.0003Z" fill="black"/>
<path d="M49.0003 11.6676H46.668H44.3327V9.33237H42.0003H39.668V7H37.3327H35.0003H32.668V9.33237H30.3327V11.6676H28.0003V14H25.668V16.3324V18.6676V21H23.3327H21.0003H18.668V18.6676H16.3327V16.3324H14.0003H11.668V14H9.33271V11.6676H7.00034V14H4.66797V16.3324H7.00034V18.6676V21H9.33271V23.3324H7.00034V25.6676V28H9.33271V30.3324H11.668V32.6676H14.0003V35H11.668V37.3324H14.0003V39.6676H16.3327H18.668V42H16.3327H14.0003V44.3324H11.668H9.33271H7.00034H4.66797V46.6676H7.00034H9.33271H11.668V49H14.0003H16.3327H18.668H21.0003H23.3327H25.668V46.6676H28.0003H30.3327V44.3324H32.668H35.0003V42H37.3327V39.6676H39.668V37.3324H42.0003V35H44.3327V32.6676V30.3324V28H46.668V25.6676V23.3324V21V18.6676H49.0003V16.3324V14H51.3327V11.6676H49.0003Z" stroke="white" stroke-width="4" mask="url(#path-1-outside-1_11_2176)"/>
</svg>
