<svg width="56" height="60" viewBox="0 0 56 60" fill="none" xmlns="http://www.w3.org/2000/svg">
<path d="M27.224 2L1.7168 29.0968L28.9245 58L54.4318 30.9032L27.224 2Z" fill="black" stroke="white" stroke-width="2"/>
<path d="M41.6779 27.291L50.1803 36.3233V47.162H46.7794V45.3555H34.0257L32.3253 43.5491H30.6248L25.5233 38.1297V36.3233L27.2238 34.5168V32.7104L32.3253 27.291H41.6779Z" fill="black"/>
<path d="M27.2238 34.5168V32.7104L32.3253 27.291H41.6779L50.1803 36.3233V47.162H46.7794V45.3555H34.0257L32.3253 43.5491H30.6248L25.5233 38.1297V36.3233M27.2238 34.5168H30.6248M27.2238 34.5168L25.5233 36.3233M30.6248 34.5168L32.3253 32.7104H34.0257L35.7262 34.5168V36.3233M30.6248 34.5168V36.3233L32.3253 38.1297H34.0257L35.7262 36.3233M35.7262 36.3233H43.3784M25.5233 36.3233H20.4219" stroke="white"/>
<rect x="50.1797" y="35.4189" width="5.10145" height="14.4516" fill="white"/>
<rect x="30.625" y="35.4189" width="5.10145" height="1.80645" fill="white"/>
</svg>
