<svg width="57" height="60" viewBox="0 0 57 60" fill="none" xmlns="http://www.w3.org/2000/svg">
<path d="M27.724 2L2.2168 29.0968L29.4245 58L54.9318 30.9032L27.724 2Z" fill="black" stroke="white" stroke-width="2"/>
<path d="M42.1779 27.291L50.6803 36.3233V47.162H47.2794V45.3555H34.5257L32.8253 43.5491H31.1248L26.0233 38.1297V36.3233L27.7238 34.5168V32.7104L32.8253 27.291H42.1779Z" fill="black"/>
<path d="M27.7238 34.5168V32.7104L32.8253 27.291H42.1779L50.6803 36.3233V47.162H47.2794V45.3555H34.5257L32.8253 43.5491H31.1248L26.0233 38.1297V36.3233M27.7238 34.5168H31.1248M27.7238 34.5168L26.0233 36.3233M31.1248 34.5168L32.8253 32.7104H34.5257L36.2262 34.5168V36.3233M31.1248 34.5168V36.3233L32.8253 38.1297H34.5257L36.2262 36.3233M36.2262 36.3233H43.8784M26.0233 36.3233H20.9219" stroke="white"/>
<rect x="50.6797" y="35.4189" width="5.10145" height="14.4516" fill="white"/>
<rect x="31.125" y="35.4189" width="5.10145" height="1.80645" fill="white"/>
</svg>
