<svg width="56" height="53" viewBox="0 0 56 53" fill="none" xmlns="http://www.w3.org/2000/svg">
<rect x="10.6289" y="1" width="28.867" height="27.7238" fill="black" stroke="white" stroke-width="2"/>
<rect x="2.125" y="29.5801" width="52.8746" height="15.1483" fill="black" stroke="white" stroke-width="2"/>
<rect x="1.05273" y="29.5801" width="47.1585" height="22.0077" fill="black" stroke="white" stroke-width="2"/>
<rect x="6.41211" y="29.0801" width="36.7263" height="7.00255" stroke="white"/>
<rect x="0.5" y="29.0801" width="48.1585" height="3.57289" stroke="white"/>
<rect x="0.517578" y="29.0801" width="48.1585" height="12.7187" stroke="white"/>
<path fill-rule="evenodd" clip-rule="evenodd" d="M22.7754 6.85938H27.3483V8.0026H22.7754V6.85938ZM21.6322 6.85942H19.3457V8.00264H21.6322V6.85942ZM23.9186 10.289H19.3457V11.4323H23.9186V10.289ZM19.3457 13.7187H25.0618V14.8619H19.3457V13.7187ZM28.4915 18.2916V17.1484H19.3457V18.2916H28.4915ZM19.3457 20.578H25.0618V21.7213H19.3457V20.578ZM31.9211 13.7187H26.205V14.8619H31.9211V13.7187ZM28.4915 10.289H25.0618V11.4323H28.4915V10.289ZM28.4915 6.85938H31.9211V8.0026H28.4915V6.85938ZM31.9211 10.289H29.6347V11.4323H31.9211V10.289ZM29.6347 17.1484H31.9211V18.2916H29.6347V17.1484ZM31.9211 20.578H26.205V21.7213H31.9211V20.578Z" fill="white"/>
<path fill-rule="evenodd" clip-rule="evenodd" d="M13.6289 3.42969H14.7721V4.57291H13.6289V3.42969ZM13.6289 6.85933H14.7721V8.00255H13.6289V6.85933ZM14.7721 10.289H13.6289V11.4322H14.7721V10.289ZM13.6289 13.7187H14.7721V14.8619H13.6289V13.7187ZM14.7721 17.1483H13.6289V18.2915H14.7721V17.1483ZM13.6289 20.578H14.7721V21.7212H13.6289V20.578ZM14.7721 24.0077H13.6289V25.1509H14.7721V24.0077Z" fill="white"/>
<path fill-rule="evenodd" clip-rule="evenodd" d="M36.4941 3.42969H37.6374V4.57291H36.4941V3.42969ZM36.4941 6.85933H37.6374V8.00255H36.4941V6.85933ZM37.6374 10.289H36.4941V11.4322H37.6374V10.289ZM36.4941 13.7187H37.6374V14.8619H36.4941V13.7187ZM37.6374 17.1483H36.4941V18.2915H37.6374V17.1483ZM36.4941 20.578H37.6374V21.7212H36.4941V20.578ZM37.6374 24.0077H36.4941V25.1509H37.6374V24.0077Z" fill="white"/>
<rect x="5.62695" y="46.8721" width="1.14322" height="1.14322" fill="white"/>
</svg>
