<svg width="56" height="56" viewBox="0 0 56 56" fill="none" xmlns="http://www.w3.org/2000/svg">
<path d="M11.6641 6H10.6641V7V9.33237V11.6676V12.6676H11.6641H13.9993H16.3317H18.6641H20.9993H23.3317H25.6641H27.9993H30.3317H32.6641H34.9993H37.3317H39.6641H41.9993H44.3317H45.3317V11.6676V9.33237V7V6H44.3317H41.9993H39.6641H37.3317H34.9993H32.6641H30.3317H27.9993H25.6641H23.3317H20.9993H18.6641H16.3317H13.9993H11.6641Z" fill="black" stroke="white" stroke-width="2"/>
<path d="M11.6641 24.668H10.6641V25.668V28.0003V30.3327V32.668V35.0003V37.3327V39.668V42.0003V44.3327V46.668V49.0003V50.0003H11.6641H13.9993H14.9993V49.0003V47.668H16.3317H17.3317V46.668V45.3327H18.6641H19.6641V44.3327V43.0003H20.9993H21.9993V42.0003V40.668H23.3317H24.3317V39.668V38.3327H25.6641H26.6641V37.3327V36.0003H27.9993H29.3317V37.3327V38.3327H30.3317H31.6641V39.668V40.668H32.6641H33.9993V42.0003V43.0003H34.9993H36.3317V44.3327V45.3327H37.3317H38.6641V46.668V47.668H39.6641H40.9993V49.0003V50.0003H41.9993H44.3317H45.3317V49.0003V46.668V44.3327V42.0003V39.668V37.3327V35.0003V32.668V30.3327V28.0003V25.668V24.668H44.3317H41.9993H39.6641H37.3317H34.9993H32.6641H30.3317H27.9993H25.6641H23.3317H20.9993H18.6641H16.3317H13.9993H11.6641Z" fill="black" stroke="white" stroke-width="2"/>
<path d="M11.6641 15.332H10.6641V16.332V18.6673V20.9997V21.9997H11.6641H13.9993H16.3317H18.6641H20.9993H23.3317H25.6641H27.9993H30.3317H32.6641H34.9993H37.3317H39.6641H41.9993H44.3317H45.3317V20.9997V18.6673V16.332V15.332H44.3317H41.9993H39.6641H37.3317H34.9993H32.6641H30.3317H27.9993H25.6641H23.3317H20.9993H18.6641H16.3317H13.9993H11.6641Z" fill="black" stroke="white" stroke-width="2"/>
</svg>
