<svg width="41" height="41" viewBox="0 0 41 41" fill="none" xmlns="http://www.w3.org/2000/svg">
<path d="M30.5001 5.5H28.832H27.166H25.5001H23.832H22.166H20.5001H18.832H17.166H15.5001H13.832H12.166H10.5001H8.83203V7.16598V8.83402H10.5001H12.166H13.832H15.5001H17.166H18.832H20.5001H22.166H23.832H25.5001H27.166H28.832H30.5001H32.166V7.16598V5.5H30.5001Z" fill="#00E100"/>
<path d="M28.832 18.834H27.166H25.5001H23.832H22.166H20.5001H18.832H17.166H15.5001H13.832H12.166H10.5001H8.83203V20.5V22.1659V23.834V25.5V27.1659V28.834V30.5V32.1659V33.834V35.5H10.5001V33.834H12.166V32.1659H13.832V30.5H15.5001V28.834H17.166V27.1659H18.832V25.5H20.5001H22.166V27.1659H23.832V28.834H25.5001V30.5H27.166V32.1659H28.832V33.834H30.5001V35.5H32.166V33.834V32.1659V30.5V28.834V27.1659V25.5V23.834V22.1659V20.5V18.834H30.5001H28.832Z" fill="#00E100"/>
<path d="M28.832 12.166H27.166H25.5001H23.832H22.166H20.5001H18.832H17.166H15.5001H13.832H12.166H10.5001H8.83203V13.8341V15.5H10.5001H12.166H13.832H15.5001H17.166H18.832H20.5001H22.166H23.832H25.5001H27.166H28.832H30.5001H32.166V13.8341V12.166H30.5001H28.832Z" fill="#00E100"/>
</svg>
