<svg width="40" height="41" viewBox="0 0 40 41" fill="none" xmlns="http://www.w3.org/2000/svg">
<path d="M28.3608 12.166H13.1113V30.5103H28.3608V12.166Z" fill="black"/>
<path d="M5 7.16602V8.83406H3.33195V10.5H1.66598V12.166H0V28.8341H1.66598V30.5H3.33195V32.166H5V33.8341H35V32.166H36.666V30.5H38.332V28.8341H40V12.166H38.332V10.5H36.666V8.83406H35V7.16602H5ZM15 27.166V13.8341H18.332V15.5H20V17.166H23.332V18.8341H25V20.5H26.666V22.166H25V23.8341H23.332V25.5H20V27.166H18.332V28.8341H15V27.166Z" fill="#00E100"/>
</svg>
