<svg width="60" height="56" viewBox="0 0 60 56" fill="none" xmlns="http://www.w3.org/2000/svg">
<path d="M41.7048 16.332H20.3555V42.0141H41.7048V16.332Z" fill="white"/>
<path d="M9 8.33203H8V9.33203V10.6673H6.66473H5.66473V11.6673V12.9997H4.33238H3.33238V13.9997V15.332H2H1V16.332V39.6673V40.6673H2H3.33238V41.9997V42.9997H4.33238H5.66473V44.332V45.332H6.66473H8V46.6673V47.6673H9H51H52V46.6673V45.332H53.3324H54.3324V44.332V42.9997H55.6647H56.6647V41.9997V40.6673H58H59V39.6673V16.332V15.332H58H56.6647V13.9997V12.9997H55.6647H54.3324V11.6673V10.6673H53.3324H52V9.33203V8.33203H51H9ZM26.6647 37.332V38.6673H24V37.332V19.6673H26.6647V20.9997V21.9997H27.6647H29V23.332V24.332H30H33.6647V25.6673V26.6673H34.6647H36V27.9997V28.9997H37H38.3324V29.332H37H36V30.332V31.6673H34.6647H33.6647V32.6673V33.9997H30H29V34.9997V36.332H27.6647H26.6647V37.332Z" fill="black" stroke="white" stroke-width="2"/>
</svg>
